<?xml version="1.0" encoding="iso-8859-1"?>
<!-- Uploaded to: SVG Repo, www.svgrepo.com, Transformed by: SVG Repo Mixer Tools -->
<svg height="800px" width="800px" version="1.1" id="Capa_1" xmlns="http://www.w3.org/2000/svg" xmlns:xlink="http://www.w3.org/1999/xlink" 
	 viewBox="0 0 75.821 75.821" xml:space="preserve">
<g>
	<path style="fill:#010002;" d="M74.944,36.289l-9.469-9.471c-0.003,0-0.003-0.003-0.006-0.003L41.016,2.362
		c0,0-0.003-0.002-0.003-0.003l-0.988-0.988c-1.167-1.169-3.063-1.169-4.231,0l-0.988,0.988c0,0.001-0.003,0.001-0.003,0.001
		L10.351,26.816c-0.003,0-0.003,0.003-0.006,0.003L0.876,36.29c-1.168,1.169-1.168,3.063,0,4.231
		c0.583,0.584,1.35,0.877,2.116,0.877s1.533-0.292,2.116-0.877l4.364-4.364v31.935c0,3.989,3.245,7.234,7.232,7.234h42.412
		c3.987,0,7.232-3.245,7.232-7.234V36.156l4.364,4.364c0.583,0.584,1.35,0.877,2.116,0.877s1.532-0.292,2.115-0.877
		C76.113,39.352,76.113,37.458,74.944,36.289z M59.116,69.34H16.704c-0.687,0-1.248-0.561-1.248-1.25V30.172L37.91,7.718
		l22.453,22.454v37.919C60.364,68.779,59.803,69.34,59.116,69.34z"/>
</g>
</svg>